<svg xmlns="http://www.w3.org/2000/svg" viewBox="0 0 303.655 30" class="design-iconfont">
  <g data-name="组 6820">
    <g data-name="组 6808" fill="#fff">
      <path data-name="路径 438" d="M298.794,367.567c-.031,0-.2-1.52-.218-1.634s-.275-2.277-.22-2.282l1.274,0c.126,1.294.435,2.584.655,3.865,0,0-.11.007-.109.01Zm.537-5.837-1.052.016c-.02-.774.03-1.192.066-1.929.021-.429.126-1.117.167-1.548l.931.139c-.037-.005-.137,2.256-.142,2.475C299.3,361.015,299.322,361.73,299.33,361.73Zm.262-4.87-.788-.133a11.042,11.042,0,0,1,1.7-3.96A15.662,15.662,0,0,0,299.592,356.86Z" transform="translate(-118.527 -342.144)"/>
      <path data-name="路径 439" d="M235.354,371.782c.062,1.891-2.033,2.17-2.968,1.589-3.266-1.688-3.843-5.893-2.57-9.048a7.733,7.733,0,0,1,6.4-4.678c.776-.036,1.769.4,1.316,1.364A24.908,24.908,0,0,0,235.354,371.782Z" transform="translate(-58.584 -348.118)"/>
      <path data-name="椭圆 1" transform="translate(197.771 9.889)" d="M7.801 0A7.801 7.801 0 1 0 7.801 15.602A7.801 7.801 0 1 0 7.801 0Z"/>
      <path data-name="椭圆 2" transform="translate(183.125 3.728)" d="M10.789 0A10.789 10.882 0 1 0 10.789 21.764A10.789 10.882 0 1 0 10.789 0Z"/>
      <path data-name="矩形 1590" transform="translate(194.028 20.513)" d="M0 0H11.508V4.98H0z"/>
      <g data-name="组 338">
        <path data-name="路径 479" d="M617.909,346.735H610.47v-2.4h7.439v-2.064h-4.091a3.2,3.2,0,0,1-1.256-.207,1.306,1.306,0,0,1-.666-.56,1.256,1.256,0,0,1-.1-.836,2.53,2.53,0,0,1,.466-1.012q.38-.55.847-1.308t.942-1.642h-2.93v-2.359h4.148q.323-.688.6-1.337t.466-1.219l2.588.747q-.381.964-.761,1.809h8.3v2.359h-9.475q-.4.767-.856,1.553t-.989,1.651h2.778v-2.556h2.55v2.556h5.27v2.359h-5.27v2.064h6.6v2.4h-6.6v2.87h-2.55Z" transform="translate(-386.404 -325.866)"/>
        <path data-name="路径 480" d="M748.836,346.843q-.114.02-.4.049t-.685.088v2.733H745.6V347.3q-.742.118-1.474.226t-1.36.207q-.628.1-1.075.177t-.6.1l-.19-2.419a3.449,3.449,0,0,0,.362-.029l.571-.069V335.4h-.609v-2.281h7.287V335.4h-.761v9.2q.361-.059.628-.108t.419-.088Zm-4.985-9.715h1.75V335.4h-1.75Zm0,3.874h1.75v-1.711h-1.75Zm0,4.189,1.75-.256v-1.77h-1.75Zm10.484-2.34a8.03,8.03,0,0,0,1.418,3.343,2.609,2.609,0,0,0,2.026,1.042h.495v2.458h-.609q-3.159,0-4.624-3.756a5.752,5.752,0,0,1-1.646,2.881,4.08,4.08,0,0,1-2.692.875h-.59v-2.458h.495a2.368,2.368,0,0,0,1.027-.216,2.14,2.14,0,0,0,.818-.728,4.591,4.591,0,0,0,.609-1.357,14.786,14.786,0,0,0,.419-2.085h-3.386v-2.419h3.6q.057-1.022.057-2.262h-3.2v-2.4H750.3q-.171-.314-.39-.708l-.428-.767q-.21-.373-.4-.7t-.3-.5l1.827-1.062q.057.1.323.531t.59.954q.323.521.619,1.013t.409.688l-.989.551h1.408q.247-.413.542-.895t.571-.964q.275-.482.523-.954t.438-.865l2.131,1.023q-.267.472-.7,1.19t-.894,1.465h1.979v2.4h-3.672q0,1.2-.057,2.262h4.11v2.419Z" transform="translate(-496.382 -326.07)"/>
        <path data-name="路径 481" d="M891.8,353.983q-.476.02-1.351.059l-1.988.089q-1.113.049-2.34.108t-2.378.118l-2.121.108q-.97.049-1.579.089a.943.943,0,0,1-.761-.246,1.48,1.48,0,0,1-.419-.7,2.03,2.03,0,0,1-.038-.877,1.725,1.725,0,0,1,.362-.818q.475-.591,1.018-1.3t1.1-1.458q.561-.749,1.085-1.5t.98-1.4h-5v-2.4h16.42v2.4h-8.029q-.495.769-1.018,1.547t-1.037,1.507q-.514.729-1.008,1.39t-.913,1.173l7.382-.414-2-3.094,2.245-1.242q.38.532.951,1.37l1.208,1.774q.637.936,1.256,1.872t1.094,1.705l-2.264,1.478Zm-11.949-12.81v-2.463H893.27v2.463Z" transform="translate(-612.295 -331.698)"/>
        <path data-name="路径 482" d="M1010.727,332.282v.649h2.493a2.079,2.079,0,0,1,1.208.423,1.425,1.425,0,0,1,.485,1.19v1.4a20.87,20.87,0,0,0,1.493-2.144,17.344,17.344,0,0,0,1.075-2.124l2.169.806q-.1.236-.2.453l-.2.413h2.892a2.535,2.535,0,0,1,1.589.393,1.478,1.478,0,0,1,.485,1.22v.472a8.419,8.419,0,0,1-.266,2.213,4.628,4.628,0,0,1-.875,1.721,2.492,2.492,0,0,0,.323.02h1.712v2.223h-1.541a14.026,14.026,0,0,1-1.9-.118,10.491,10.491,0,0,1-1.579-.335,11.683,11.683,0,0,1-1.912.344,23.351,23.351,0,0,1-2.369.108h-.78v1.751H1013.3v2.6q.438-.078.837-.157t.78-.157l.323,2.184q-.647.1-1.627.266t-2.017.364q-1.037.2-2,.393t-1.551.334l-.209-2.321.514-.059v-6.394h2.074v6.059q.19-.039.381-.069c.127-.02.26-.042.4-.069v-7.239h-.476v.334h-2.112v-7.141Zm0,2.675v2.1h2.055v-2.1Zm4.186,2.341v1.79H1013.3v2.125h1.674v-1.83h.666q.989,0,1.827-.059a5.968,5.968,0,0,1-.875-1.987,4.536,4.536,0,0,1-.333.384q-.181.187-.371.4Zm7.42,11.449h-4.243v.374h-2.15v-7.338h2.15v.374h4.623a1.539,1.539,0,0,1,1.77,1.711v5.253h-2.15Zm-4.243-4.485v2.42h4.243v-2.42Zm.381-8.754a3.624,3.624,0,0,0,1.636,3.128,2.921,2.921,0,0,0,1.189-1.2,4.162,4.162,0,0,0,.39-1.928Z" transform="translate(-721.457 -325.764)"/>
      </g>
    </g>
    <g data-name="组 6816">
      <g data-name="组 6815">
        <path data-name="路径 2685" d="M654.48,558.246V536.69a3.118,3.118,0,0,1,3.049-3.148l13.98-.17a1.356,1.356,0,0,1,1.358,1.369v23.141L659.235,561.9A3.738,3.738,0,0,1,654.48,558.246Z" transform="translate(-654.48 -533.372)" fill="#83be2d"/>
        <path data-name="路径 2686" d="M936.112,547.9V571.7a3,3,0,0,1-3.4,3.013l-12.938-1.841a5.753,5.753,0,0,1-4.892-5.733v-15.97a1.907,1.907,0,0,1,1.452-1.865l16.628-3.944A2.577,2.577,0,0,1,936.112,547.9Z" transform="translate(-906.743 -544.916)" fill="#04a4da"/>
        <g data-name="组 6814" fill="#fff">
          <path data-name="矩形 6424" d="M0 0H3.085V3.085H0z" transform="translate(11.723 6.814)"/>
          <path data-name="路径 2687" d="M1100.328,906.793v12.34h3.085v-6.17h9.132v-3.085h-9.132v-3.085Z" transform="translate(-1086.383 -894.796)"/>
          <path data-name="矩形 6425" transform="translate(17.029 8.912)" d="M0 0H9.132V3.085H0z"/>
        </g>
      </g>
      <path data-name="路径 2688" d="M1852.422,612.454h2.809v2.017h1.368v2.017h-1.368v3.1l1.368-.36v1.945l-1.368.576V626.5q.071,2.448-2.3,2.377h-1.8V627h.72q.648.073.576-.648v-3.817q-.289.073-1.008.216a8.134,8.134,0,0,0-.864.144v-2.521a10.872,10.872,0,0,0,1.873-.288v-3.6h-1.656v-2.017h1.656Zm5.33,15.989v-4.9a16.712,16.712,0,0,1-1.657,1.3v-2.377a14.865,14.865,0,0,0,3.169-7.2h-2.3v-2.089h10.371v2.089h-4.97a25.02,25.02,0,0,1-1.008,3.457h5.474v7.058q.071,2.736-2.737,2.665Zm6.194-7.634h-3.313v5.762h2.449a.764.764,0,0,0,.865-.864Z" transform="translate(-1813.141 -609.981)" fill="#fff"/>
      <path data-name="路径 2689" d="M2509.3,626.428v-3.1h-2.881v3.313h-2.953V614.616h5.834v-1.008h-6.7v-2.017h6.7v-1.44h3.241v1.44h1.8v-1.08h2.953v1.08h1.945v2.017h-6.7v1.008h5.906v9.291q.071,2.736-2.809,2.665h-1.729V624.7h.865a.637.637,0,0,0,.72-.72v-.648h-2.953v3.1Zm-2.881-9.8V618h2.881v-1.368Zm0,3.313v1.44h2.881v-1.44Zm9.075-3.313h-2.953V618h2.953Zm-2.953,3.313v1.44h2.953v-1.44Z" transform="translate(-2444.801 -607.75)" fill="#fff"/>
      <path data-name="路径 2690" d="M3147.961,618.864v-2.017h2.089v-1.8h-1.945V613.03h3.673a15.283,15.283,0,0,0,3.169-.432v2.089a1.206,1.206,0,0,0-.36.072q-.721.145-1.656.288v1.8h1.8v2.017h-1.8v.144a13.621,13.621,0,0,0,1.656,2.953v2.809q-.937-1.08-1.656-2.017v6.122h-2.881v-5.258a12.127,12.127,0,0,1-2.3,2.881v-2.665a19.8,19.8,0,0,0,2.233-4.97Zm16.709,4.033v2.089h-1.656v3.961h-3.025v-3.961h-5.042V622.9h5.042V612.454h3.025V622.9Zm-5.474-1.08a11.67,11.67,0,0,0-4.105-1.729v-2.161a9.791,9.791,0,0,1,4.105,1.08Zm.432-4.609a12.188,12.188,0,0,0-4.033-1.368v-2.161a10.409,10.409,0,0,1,4.033.864Z" transform="translate(-3069.766 -609.981)" fill="#fff"/>
      <path data-name="路径 2691" d="M3803.685,610.151h2.953v2.089h1.153v2.017h-1.153v3.169a2.3,2.3,0,0,1,.433-.144,4.506,4.506,0,0,1,.864-.288v2.089a9.755,9.755,0,0,1-1.3.5v4.537a2.2,2.2,0,0,1-2.449,2.521h-1.656v-1.873h.432q.719,0,.72-.792v-3.673a3.071,3.071,0,0,0-.72.144,8.12,8.12,0,0,0-.864.144v-2.521a5.908,5.908,0,0,0,.792-.072,3.406,3.406,0,0,0,.792-.072v-3.673h-1.441V612.24h1.441Zm3.889,16.637v-1.8a17.4,17.4,0,0,0,3.673-1.8,12.287,12.287,0,0,1-2.881-4.537h3.1a15.075,15.075,0,0,0,1.873,2.737,11.862,11.862,0,0,0,1.8-3.385h-6.842v-2.017h3.241v-2.017h-3.385v-2.017h3.385v-1.8h3.241v1.8h3.961v2.017h-3.961v2.017h3.529V618a10.8,10.8,0,0,1-2.881,5.186,21.169,21.169,0,0,0,3.313,1.656v1.8a26.152,26.152,0,0,1-5.474-1.873A39.639,39.639,0,0,1,3807.574,626.788Z" transform="translate(-3703.656 -607.75)" fill="#fff"/>
      <path data-name="路径 2692" d="M1852.441,1262.466h-1.5l-.184,4.594h-.674l.184-4.594h-1.491l.024-.6h3.663Z" transform="translate(-1811.425 -1238.511)" fill="#fff"/>
      <path data-name="路径 2693" d="M2016.117,1264.946q-.088,2.2-2.085,2.2-1.913,0-1.828-2.125l.126-3.153h.67l-.125,3.123q-.062,1.558,1.245,1.558,1.263,0,1.324-1.508l.127-3.174h.67Z" transform="translate(-1969.735 -1238.511)" fill="#fff"/>
      <path data-name="路径 2694" d="M2182.192,1261.828a2.955,2.955,0,0,1,.76-2,2.468,2.468,0,0,1,1.873-.744,2.152,2.152,0,0,1,1.713.727,2.618,2.618,0,0,1,.584,1.893,2.965,2.965,0,0,1-.757,2,2.428,2.428,0,0,1-1.839.741,2.2,2.2,0,0,1-1.744-.727A2.6,2.6,0,0,1,2182.192,1261.828Zm.706-.054a2.188,2.188,0,0,0,.42,1.51,1.5,1.5,0,0,0,1.232.568,1.707,1.707,0,0,0,1.327-.545,2.324,2.324,0,0,0,.535-1.523,2.257,2.257,0,0,0-.4-1.551,1.517,1.517,0,0,0-1.25-.546,1.68,1.68,0,0,0-1.31.577A2.326,2.326,0,0,0,2182.9,1261.774Z" transform="translate(-2134.408 -1235.811)" fill="#fff"/>
      <path data-name="路径 2695" d="M2386.986,1262.466h-2l-.07,1.736h1.856l-.023.59h-1.856l-.091,2.269h-.67l.208-5.191h2.674Z" transform="translate(-2330.032 -1238.511)" fill="#fff"/>
      <path data-name="路径 2696" d="M2523.351,1264.946q-.088,2.2-2.085,2.2-1.914,0-1.829-2.125l.126-3.153h.67l-.125,3.123q-.062,1.558,1.244,1.558,1.263,0,1.323-1.508l.127-3.174h.67Z" transform="translate(-2461.105 -1238.511)" fill="#fff"/>
      <path data-name="路径 2697" d="M2743.579,1262.466h-1.5l-.184,4.594h-.674l.184-4.594h-1.491l.024-.6h3.663Z" transform="translate(-2674.692 -1238.511)" fill="#fff"/>
      <path data-name="路径 2698" d="M2909.4,1267.061h-2.792l.208-5.191h2.674l-.024.6h-2l-.067,1.662h1.856l-.024.593h-1.856l-.07,1.746h2.121Z" transform="translate(-2836.174 -1238.511)" fill="#fff"/>
      <path data-name="路径 2699" d="M3031.224,1264.146a3.139,3.139,0,0,1-1.45.3,2.242,2.242,0,0,1-1.754-.709,2.534,2.534,0,0,1-.592-1.875,2.864,2.864,0,0,1,.831-2.017,2.661,2.661,0,0,1,1.937-.764,3.037,3.037,0,0,1,1.221.211l-.028.7a2.411,2.411,0,0,0-1.211-.308,1.934,1.934,0,0,0-1.437.578,2.263,2.263,0,0,0-.608,1.56,2.015,2.015,0,0,0,.45,1.479,1.668,1.668,0,0,0,1.312.548,2.591,2.591,0,0,0,1.354-.348Z" transform="translate(-2953.209 -1235.811)" fill="#fff"/>
      <path data-name="路径 2700" d="M3197.558,1267.061h-.67l.094-2.339h-2.627l-.094,2.339h-.67l.208-5.191h.67l-.09,2.255H3197l.09-2.255h.67Z" transform="translate(-3114.177 -1238.511)" fill="#fff"/>
      <path data-name="路径 2701" d="M3362.569,1267.061h-.794l-2.449-4.038a1.893,1.893,0,0,1-.164-.338h-.02a6.073,6.073,0,0,1,0,.727l-.146,3.649h-.664l.208-5.191h.841l2.382,3.968a3.514,3.514,0,0,1,.2.358h.013a5.74,5.74,0,0,1,0-.757l.143-3.569h.664Z" transform="translate(-3273.765 -1238.511)" fill="#fff"/>
      <path data-name="路径 2702" d="M3534.817,1261.828a2.957,2.957,0,0,1,.76-2,2.47,2.47,0,0,1,1.873-.744,2.152,2.152,0,0,1,1.714.727,2.616,2.616,0,0,1,.584,1.893,2.963,2.963,0,0,1-.757,2,2.427,2.427,0,0,1-1.839.741,2.2,2.2,0,0,1-1.744-.727A2.6,2.6,0,0,1,3534.817,1261.828Zm.706-.054a2.187,2.187,0,0,0,.42,1.51,1.5,1.5,0,0,0,1.232.568,1.707,1.707,0,0,0,1.327-.545,2.325,2.325,0,0,0,.535-1.523,2.256,2.256,0,0,0-.4-1.551,1.517,1.517,0,0,0-1.25-.546,1.68,1.68,0,0,0-1.31.577A2.327,2.327,0,0,0,3535.523,1261.774Z" transform="translate(-3444.729 -1235.811)" fill="#fff"/>
      <path data-name="路径 2703" d="M3741.411,1267.061h-2.738l.208-5.191h.67l-.184,4.6h2.068Z" transform="translate(-3642.212 -1238.511)" fill="#fff"/>
      <path data-name="路径 2704" d="M3857.724,1261.828a2.957,2.957,0,0,1,.761-2,2.468,2.468,0,0,1,1.873-.744,2.152,2.152,0,0,1,1.713.727,2.619,2.619,0,0,1,.584,1.893,2.965,2.965,0,0,1-.757,2,2.428,2.428,0,0,1-1.839.741,2.2,2.2,0,0,1-1.744-.727A2.6,2.6,0,0,1,3857.724,1261.828Zm.706-.054a2.187,2.187,0,0,0,.42,1.51,1.5,1.5,0,0,0,1.232.568,1.706,1.706,0,0,0,1.327-.545,2.321,2.321,0,0,0,.535-1.523,2.257,2.257,0,0,0-.4-1.551,1.517,1.517,0,0,0-1.25-.546,1.679,1.679,0,0,0-1.31.577A2.328,2.328,0,0,0,3858.43,1261.774Z" transform="translate(-3757.536 -1235.811)" fill="#fff"/>
      <path data-name="路径 2705" d="M4041.632,1264.006a3.587,3.587,0,0,1-1.774.442,2.317,2.317,0,0,1-1.786-.712,2.529,2.529,0,0,1-.613-1.9,2.811,2.811,0,0,1,.84-1.977,2.72,2.72,0,0,1,1.981-.774,3.323,3.323,0,0,1,1.414.268l-.029.724a2.652,2.652,0,0,0-1.469-.392,1.916,1.916,0,0,0-1.42.58,2.211,2.211,0,0,0-.611,1.528,2.071,2.071,0,0,0,.445,1.518,1.71,1.71,0,0,0,1.346.543,2.127,2.127,0,0,0,1.018-.228l.056-1.4H4039.9l.024-.593h1.8Z" transform="translate(-3931.65 -1235.811)" fill="#fff"/>
      <path data-name="路径 2706" d="M4214.143,1261.87l-1.84,3.281-.076,1.91h-.673l.075-1.893-1.534-3.3h.768l1.031,2.3s.039.113.111.332h.01a1.883,1.883,0,0,1,.15-.328l1.265-2.3Z" transform="translate(-4098.89 -1238.511)" fill="#fff"/>
    </g>
    <path data-name="直线 32" transform="translate(142.64 .057)" fill="none" stroke="#fff" opacity=".5" d="M0 0L0 29.943"/>
  </g>
</svg>
