<svg xmlns="http://www.w3.org/2000/svg" viewBox="0 0 122.09 20" class="design-iconfont">
  <g fill="#2154f4">
    <path data-name="路径 438" d="M298.751,366.348c-.028,0-.188-1.395-.2-1.5s-.252-2.089-.2-2.094l1.169,0c.115,1.187.4,2.371.6,3.547,0,0-.1.006-.1.009Zm.493-5.356-.966.015c-.019-.71.028-1.094.061-1.77.019-.394.116-1.025.153-1.42l.855.127c-.034,0-.126,2.07-.13,2.271C299.214,360.336,299.236,360.992,299.243,360.992Zm.24-4.469-.723-.122a10.133,10.133,0,0,1,1.56-3.633A14.372,14.372,0,0,0,299.483,356.523Z" transform="translate(-289.885 -346.44)"/>
    <path data-name="路径 439" d="M234.846,370.782c.057,1.735-1.865,1.991-2.724,1.458-3-1.549-3.527-5.408-2.358-8.3a7.1,7.1,0,0,1,5.868-4.293c.712-.033,1.623.366,1.208,1.252A22.857,22.857,0,0,0,234.846,370.782Z" transform="translate(-229.189 -352.488)"/>
    <path data-name="椭圆 1" transform="translate(24.928 5.654)" d="M7.159 0A7.159 7.159 0 1 0 7.159 14.318A7.159 7.159 0 1 0 7.159 0Z"/>
    <path data-name="椭圆 2" transform="translate(11.489)" d="M9.9 0A9.9 9.986 0 1 0 9.9 19.972A9.9 9.986 0 1 0 9.9 0Z"/>
    <path data-name="矩形 1590" transform="translate(21.493 15.402)" d="M0 0H10.56V4.569H0z"/>
  </g>
  <g data-name="组 338" fill="#323232">
    <path data-name="路径 479" d="M617.3,345.062H610.47v-2.13H617.3V341.1h-3.754a3.022,3.022,0,0,1-1.152-.183,1.189,1.189,0,0,1-.611-.5,1.083,1.083,0,0,1-.1-.742,2.213,2.213,0,0,1,.428-.9q.349-.488.777-1.161t.864-1.458h-2.689v-2.1h3.806q.3-.611.55-1.187t.428-1.082l2.374.663q-.349.856-.7,1.606h7.612v2.1h-8.695q-.367.681-.786,1.379T614.747,339H617.3v-2.27h2.34V339h4.836v2.1h-4.836v1.833h6.058v2.13h-6.058v2.549H617.3Z" transform="translate(-561.412 -329.776)"/>
    <path data-name="路径 480" d="M748.183,345.182q-.1.018-.367.044t-.628.079v2.427h-1.973v-2.148q-.681.1-1.353.2t-1.248.183q-.576.088-.986.157t-.55.087l-.175-2.148a3.264,3.264,0,0,0,.332-.026l.524-.061v-8.957H741.2V333h6.687v2.025h-.7v8.171q.332-.052.576-.1t.384-.078Zm-4.574-8.625h1.606v-1.537h-1.606Zm0,3.439h1.606v-1.519h-1.606Zm0,3.719,1.606-.227v-1.571h-1.606Zm9.62-2.078a7.014,7.014,0,0,0,1.3,2.968,2.421,2.421,0,0,0,1.859.925h.454v2.182h-.559q-2.9,0-4.243-3.335a5.074,5.074,0,0,1-1.51,2.558,3.827,3.827,0,0,1-2.471.777h-.541v-2.182h.454a2.235,2.235,0,0,0,.943-.192,1.947,1.947,0,0,0,.751-.646,4.017,4.017,0,0,0,.559-1.2,12.751,12.751,0,0,0,.384-1.851H747.5V339.49h3.3q.052-.908.053-2.008h-2.933v-2.13h1.606q-.157-.279-.358-.629l-.393-.681q-.192-.331-.367-.62t-.279-.445l1.676-.943q.052.088.3.472t.541.847q.3.463.568.9t.375.611l-.908.489h1.292q.227-.367.5-.794t.524-.855q.253-.428.48-.847t.4-.768l1.955.908q-.245.419-.646,1.056l-.82,1.3h1.816v2.13h-3.37q0,1.065-.052,2.008h3.771v2.148Z" transform="translate(-673.075 -329.983)"/>
    <path data-name="路径 481" d="M890.7,352.24l-1.24.052-1.825.079q-1.021.044-2.148.1t-2.182.1l-1.947.1q-.89.043-1.449.079a.885.885,0,0,1-.7-.218,1.3,1.3,0,0,1-.384-.62,1.739,1.739,0,0,1-.035-.777,1.5,1.5,0,0,1,.332-.725q.436-.524.934-1.152t1.013-1.292q.515-.663,1-1.327t.9-1.24h-4.592v-2.13h15.067v2.13h-7.368q-.454.681-.934,1.371t-.952,1.336q-.471.646-.925,1.231t-.838,1.039l6.774-.367-1.833-2.741,2.06-1.1q.349.471.873,1.213l1.109,1.571q.585.83,1.152,1.659t1,1.51l-2.078,1.309Zm-10.965-11.349v-2.182h12.309v2.182Z" transform="translate(-790.764 -335.696)"/>
    <path data-name="路径 482" d="M1010.489,332.213v.576h2.287a1.949,1.949,0,0,1,1.109.375,1.245,1.245,0,0,1,.445,1.056v1.24a18.524,18.524,0,0,0,1.37-1.9,15.211,15.211,0,0,0,.987-1.885l1.99.716q-.088.21-.183.4l-.183.366h2.654a2.386,2.386,0,0,1,1.458.349,1.291,1.291,0,0,1,.445,1.083v.419a7.235,7.235,0,0,1-.245,1.964,4.058,4.058,0,0,1-.8,1.528,2.37,2.37,0,0,0,.3.017h1.571v1.973h-1.414a13.3,13.3,0,0,1-1.746-.1,9.91,9.91,0,0,1-1.449-.3,11.047,11.047,0,0,1-1.755.306q-.969.1-2.174.1h-.716v1.554h-1.589v2.3q.4-.069.768-.14t.716-.14l.3,1.938q-.594.087-1.493.236t-1.851.323q-.952.174-1.833.349t-1.423.3l-.192-2.06.471-.052v-5.674h1.9V344.8q.174-.035.349-.061c.116-.018.238-.038.367-.061v-6.425h-.437v.3h-1.938v-6.338Zm0,2.374v1.868h1.886v-1.868Zm3.841,2.078v1.589h-1.484v1.886h1.537v-1.624h.611q.908,0,1.676-.052a5.212,5.212,0,0,1-.8-1.763,4.088,4.088,0,0,1-.306.34q-.166.166-.34.358Zm6.809,10.161h-3.894v.332h-1.973v-6.512h1.973v.332h4.243q1.624,0,1.624,1.519v4.662h-1.973Zm-3.894-3.981v2.147h3.894v-2.147Zm.349-7.769a3.191,3.191,0,0,0,1.5,2.776,2.637,2.637,0,0,0,1.091-1.065,3.591,3.591,0,0,0,.358-1.711Z" transform="translate(-901.597 -329.672)"/>
  </g>
</svg>
