<svg xmlns="http://www.w3.org/2000/svg" viewBox="0 0 22 22" class="design-iconfont">
  <g data-name="组 6809" opacity=".5" fill="#fff">
    <path data-name="路径 2679" d="M6,5h7.739a1,1,0,0,1,1,1v7.739a1,1,0,0,1-1,1H6a1,1,0,0,1-1-1V6A1,1,0,0,1,6,5Zm6.739,2H7v5.739h5.739Z" transform="translate(-5 -5)"/>
    <path data-name="路径 2680" d="M6,27h7.739a1,1,0,0,1,1,1v7.739a1,1,0,0,1-1,1H6a1,1,0,0,1-1-1V28A1,1,0,0,1,6,27Zm6.739,2H7v5.739h5.739Z" transform="translate(-5 -14.739)"/>
    <path data-name="路径 2681" d="M28,5h7.739a1,1,0,0,1,1,1v7.739a1,1,0,0,1-1,1H28a1,1,0,0,1-1-1V6A1,1,0,0,1,28,5Zm6.739,2H29v5.739h5.739Z" transform="translate(-14.739 -5)"/>
    <path data-name="路径 2682" d="M29,36.739a1,1,0,0,1-1-1V28a1,1,0,1,1,2,0v7.739A1,1,0,0,1,29,36.739Z" transform="translate(-15.222 -14.739)"/>
    <path data-name="路径 2683" d="M41,36.739a1,1,0,0,1-1-1V28a1,1,0,1,1,2,0v7.739A1,1,0,0,1,41,36.739Z" transform="translate(-20.553 -14.739)"/>
  </g>
</svg>
