<svg xmlns="http://www.w3.org/2000/svg" viewBox="0 0 16 15.991" class="design-iconfont">
  <path data-name="路径 509" d="M8.9,20.655a11.36,11.36,0,0,1,3.76-3.453,7.291,7.291,0,0,1,7,.311,8.241,8.241,0,0,1,2.488,2.156l1.6-.913s.332-.164.332.219V24.71s0,.512-.387.329c-.326-.154-3.848-2.156-4.957-2.788-.609-.272-.074-.493-.074-.493l1.548-.884a6.649,6.649,0,0,0-2.175-1.691,4.822,4.822,0,0,0-4.264-.207,6.712,6.712,0,0,0-3.129,2.866L8.9,20.655Zm14.378,7.581a11.359,11.359,0,0,1-3.76,3.453,7.291,7.291,0,0,1-7-.31,8.239,8.239,0,0,1-2.488-2.156l-1.6.913s-.332.164-.332-.219V24.18s0-.511.387-.329c.326.154,3.848,2.156,4.957,2.788.609.272.074.493.074.493l-1.548.885a6.65,6.65,0,0,0,2.175,1.691,4.822,4.822,0,0,0,4.264.207,6.711,6.711,0,0,0,3.129-2.866l1.751,1.187Zm0,0" transform="translate(-8.09 -16.45)" fill="#fff"/>
</svg>
